<svg width="176" height="186" viewBox="0 0 176 186" fill="none" xmlns="http://www.w3.org/2000/svg">
<g opacity="0.46">
<path opacity="0.46" d="M165.202 39.1887H66.4901C65.4322 39.1887 64.6962 38.2227 64.9722 37.2108L74.1718 1.79238C74.3558 1.10241 74.9997 0.596436 75.6897 0.596436H174.355C175.413 0.596436 176.149 1.56239 175.873 2.57435L166.674 37.9927C166.536 38.7287 165.892 39.1887 165.202 39.1887Z" fill="#BFD9FF"/>
<g opacity="0.46">
<path opacity="0.46" d="M114.374 9.01412H80.0136C79.5536 9.01412 79.2317 8.64614 79.2317 8.23216C79.2317 7.81818 79.5996 7.4502 80.0136 7.4502H114.374C114.834 7.4502 115.156 7.81818 115.156 8.23216C115.156 8.64614 114.834 9.01412 114.374 9.01412Z" fill="#A9C2FF"/>
<path opacity="0.46" d="M111.752 24.8374H77.3917C76.9317 24.8374 76.6097 24.4694 76.6097 24.0554C76.6097 23.6414 76.9777 23.2734 77.3917 23.2734H111.752C112.212 23.2734 112.534 23.6414 112.534 24.0554C112.534 24.4694 112.166 24.8374 111.752 24.8374Z" fill="#A9C2FF"/>
<path opacity="0.46" d="M126.196 18.8578H91.8351C91.3751 18.8578 91.0532 18.4898 91.0532 18.0758C91.0532 17.6618 91.4211 17.2938 91.8351 17.2938H126.196C126.656 17.2938 126.978 17.6618 126.978 18.0758C126.978 18.4898 126.61 18.8578 126.196 18.8578Z" fill="#A9C2FF"/>
<path opacity="0.46" d="M89.4432 14.3039H79.1397C78.6797 14.3039 78.3577 13.9359 78.3577 13.522C78.3577 13.108 78.7257 12.74 79.1397 12.74H89.4432C89.9032 12.74 90.2252 13.108 90.2252 13.522C90.2252 13.9359 89.9032 14.3039 89.4432 14.3039Z" fill="#A9C2FF"/>
<path opacity="0.46" d="M88.0633 18.8578H77.7597C77.2998 18.8578 76.9778 18.4898 76.9778 18.0758C76.9778 17.6618 77.3458 17.2938 77.7597 17.2938H88.0633C88.5233 17.2938 88.8452 17.6618 88.8452 18.0758C88.8452 18.4898 88.4773 18.8578 88.0633 18.8578Z" fill="#A9C2FF"/>
<path opacity="0.46" d="M132.083 9.01412H119.848C119.388 9.01412 119.066 8.64614 119.066 8.23216C119.066 7.81818 119.434 7.4502 119.848 7.4502H132.083C132.543 7.4502 132.865 7.81818 132.865 8.23216C132.865 8.64614 132.497 9.01412 132.083 9.01412Z" fill="#A9C2FF"/>
<path opacity="0.46" d="M125.828 31.7832H107.566C107.428 31.7832 107.336 31.7372 107.244 31.6452C107.152 31.5532 107.152 31.4152 107.152 31.2772L107.98 28.1494C108.026 27.9654 108.21 27.8274 108.394 27.8274H126.656C126.794 27.8274 126.886 27.8734 126.978 27.9654C127.07 28.0574 127.07 28.1954 127.07 28.3334L126.242 31.4612C126.196 31.6452 126.012 31.7832 125.828 31.7832ZM107.704 31.2312H125.736L126.472 28.3334H108.44L107.704 31.2312Z" fill="#84AEE5"/>
<path opacity="0.46" d="M103.105 31.7832H84.8434C84.7055 31.7832 84.6135 31.7372 84.5215 31.6452C84.4295 31.5532 84.4295 31.4152 84.4295 31.2772L85.2574 28.1494C85.3034 27.9654 85.4874 27.8274 85.6714 27.8274H103.933C104.071 27.8274 104.163 27.8734 104.255 27.9654C104.347 28.0574 104.347 28.1954 104.347 28.3334L103.519 31.4612C103.473 31.6452 103.289 31.7832 103.105 31.7832ZM84.9814 31.2312H103.013L103.749 28.3334H85.7634L84.9814 31.2312Z" fill="#84AEE5"/>
</g>
<path opacity="0.46" d="M157.934 26.9532C157.014 25.7113 153.196 24.7913 152.138 23.5494C151.586 22.9054 151.586 21.7095 151.724 20.7435C152.092 20.5135 152.414 20.2835 152.598 20.0535C152.92 19.5936 153.288 18.9496 153.61 18.2596C153.702 18.3516 153.84 18.4436 154.07 18.4436C154.576 18.4436 156.462 15.8217 155.956 15.2238C155.68 14.9018 155.22 15.1778 154.898 15.4998C155.404 14.3498 155.772 13.4758 155.772 13.4758C155.818 13.3379 155.864 13.1999 155.91 13.0159C156.646 9.98 154.806 7.54211 151.816 7.54211C148.78 7.54211 145.745 9.98 144.963 13.0159C144.917 13.1539 144.917 13.2919 144.871 13.4758C144.871 13.4758 144.779 14.3498 144.733 15.4998C144.549 15.1778 144.273 14.9018 143.813 15.2238C143.031 15.8217 143.629 18.3976 144.135 18.4436C144.319 18.4436 144.503 18.3516 144.641 18.2596C144.641 18.9496 144.687 19.5936 144.779 20.0535C144.871 20.3295 145.147 20.6055 145.469 20.9275C145.101 21.8935 144.503 22.9974 143.721 23.5954C142.065 24.8373 137.787 25.7573 136.223 26.9992C134.843 28.1032 133.555 31.415 133.325 32.059H158.348C158.394 31.323 158.808 28.0572 157.934 26.9532Z" fill="#8DBCF8"/>
</g>
<path d="M147.998 67.6613H49.3329C48.7349 67.6613 48.2289 67.3853 47.861 66.9254C47.493 66.4654 47.401 65.8674 47.539 65.3154L56.7385 29.897C56.9685 29.0691 57.7045 28.5171 58.5325 28.5171H157.198C157.796 28.5171 158.302 28.7931 158.67 29.2531C159.038 29.713 159.13 30.311 158.992 30.863L149.792 66.2354C149.608 67.0634 148.872 67.6613 147.998 67.6613ZM58.5325 29.0691C57.9345 29.0691 57.4285 29.483 57.2445 30.035L48.0449 65.4534C47.9529 65.8674 48.0449 66.2814 48.2749 66.6034C48.5049 66.9254 48.9189 67.1093 49.3329 67.1093H147.998C148.596 67.1093 149.148 66.6954 149.286 66.1434L158.486 30.771C158.578 30.357 158.486 29.943 158.256 29.621C158.026 29.2991 157.612 29.1151 157.198 29.1151H58.5325V29.0691Z" fill="#7094D8"/>
<path d="M146.159 64.7636H47.493C46.435 64.7636 45.6991 63.7977 45.975 62.7857L55.1746 27.3673C55.3586 26.6774 56.0026 26.1714 56.6926 26.1714H155.358C156.416 26.1714 157.152 27.1373 156.876 28.1493L147.676 63.5677C147.538 64.2577 146.894 64.7636 146.159 64.7636Z" fill="#B4CEFF"/>
<path d="M138.201 59.4737H116.03C115.018 59.4737 114.374 58.6458 114.65 57.6338L120.216 35.1408C120.492 34.1289 121.504 33.3009 122.516 33.3009H144.687C145.699 33.3009 146.343 34.1289 146.067 35.1408L140.501 57.5878C140.271 58.6458 139.213 59.4737 138.201 59.4737Z" fill="#B7DEFF"/>
<path d="M127.299 59.566L129.231 51.7923L126.057 50.4584C126.057 50.4584 120.123 52.6203 119.618 53.1722C119.204 53.6322 117.042 58.14 116.398 59.612H127.299V59.566Z" fill="#023F61"/>
<path d="M138.293 59.5658C138.339 58.0939 138.477 53.5861 138.293 53.1261C138.063 52.6201 133.187 50.4122 133.187 50.4122L129.323 51.7462L127.391 59.5198H138.293V59.5658Z" fill="#023F61"/>
<path d="M129.323 59.5659L132.359 52.8042L125.827 53.1722L125.183 59.5659H129.323Z" fill="#BEBECF"/>
<path d="M127.253 48.9863L125.827 49.9063L124.908 52.1142L124.632 55.196L126.655 54.3681L128.219 56.254L130.289 54.5521L131.577 55.748L133.509 51.6082L133.141 49.0783L132.359 48.7103L127.253 48.9863Z" fill="#DEE0E8"/>
<path d="M127.667 43.0985C127.667 43.0985 127.207 41.9946 126.195 42.7305C125.229 43.4665 126.379 46.2264 127.069 45.3984C127.805 44.5704 127.667 43.0985 127.667 43.0985Z" fill="#F99352"/>
<path d="M134.659 43.0526C134.659 43.0526 135.579 41.9026 136.315 42.5466C137.005 43.1906 134.705 46.1344 134.337 45.3525C133.923 44.5245 134.659 43.0526 134.659 43.0526Z" fill="#F99352"/>
<path d="M132.497 51.1483L133.509 45.8125L127.713 46.3185L126.425 51.3323C126.425 51.3323 127.437 53.6781 128.541 54.7361C128.495 54.7361 131.899 51.8382 132.497 51.1483Z" fill="#F99352"/>
<path d="M137.189 40.8906C136.959 41.5345 136.453 41.7185 136.407 42.0865C136.361 42.4545 136.131 43.4205 135.763 43.7884C135.395 44.1564 135.211 44.2944 135.211 44.2944C135.211 44.2944 130.243 45.6744 127.713 43.7424C127.713 43.7424 127.529 43.0065 127.713 42.1325C127.897 41.2586 127.483 41.1206 127.943 40.6606C128.449 40.2466 128.587 39.8326 128.587 39.3726C128.587 38.8667 128.633 38.3147 129.139 37.8087C129.645 37.3027 130.105 37.4867 130.565 37.0728C130.565 37.0728 131.301 35.8768 132.267 35.6928C133.233 35.5548 135.257 35.0488 136.453 36.5208C137.649 37.9927 137.097 39.2807 137.465 39.7406C137.787 40.2466 137.189 40.8906 137.189 40.8906Z" fill="#713336"/>
<path d="M127.667 42.1785C127.667 42.1785 125.321 48.6642 129.737 49.1242C133.647 49.2162 135.027 44.4324 135.579 41.9945C136.131 39.5566 135.809 36.9807 132.681 37.0727C129.553 37.1647 127.989 40.7065 127.667 42.1785Z" fill="#FFAE73"/>
<path d="M128.863 39.8787C128.863 39.8787 129.139 40.3846 128.863 40.9366C128.587 41.4426 127.851 41.6726 127.759 42.3626C127.667 43.0525 127.345 44.4785 127.115 44.5705C126.931 44.6165 127.069 43.1905 127.069 42.6845C127.115 42.1786 127.483 40.1087 128.541 38.7747C129.599 37.4408 130.243 36.8888 132.083 36.6128C133.923 36.2908 135.349 37.0728 135.855 38.2227C136.361 39.3727 135.533 42.2246 135.533 42.2246C135.533 42.2246 135.671 40.8446 135.211 40.5226C134.751 40.2007 134.383 39.9707 134.429 39.7867C134.521 39.6027 132.957 40.2927 131.393 39.7867C129.829 39.2807 129.369 39.5107 129.093 39.6947C128.955 39.7407 128.863 39.8787 128.863 39.8787Z" fill="#713336"/>
<path d="M123.803 59.428L123.619 59.336L124.079 58.37L122.239 57.45L122.285 57.358C123.113 55.3341 124.401 52.2983 124.447 52.1603L124.677 52.2063C124.631 52.3443 122.975 56.3001 122.561 57.312L124.447 58.232L123.803 59.428Z" fill="#022755"/>
<path d="M130.795 59.3817V58.2778L133.141 57.3578C133.233 56.3919 133.555 52.344 133.555 52.2061L133.785 52.2521C133.739 52.39 133.509 55.4259 133.371 57.4498V57.5418L131.025 58.4618V59.4277H130.795V59.3817Z" fill="#022755"/>
<path d="M138.201 59.7039H116.03C115.478 59.7039 114.972 59.4739 114.65 59.0599C114.328 58.646 114.236 58.094 114.374 57.496L119.986 35.049C120.262 33.8991 121.412 32.9791 122.562 32.9791H144.733C145.285 32.9791 145.791 33.2091 146.113 33.6231C146.435 34.0371 146.526 34.5891 146.388 35.187L140.777 57.68C140.501 58.784 139.351 59.7039 138.201 59.7039ZM122.516 33.5771C121.596 33.5771 120.676 34.3131 120.446 35.233L114.88 57.68C114.788 58.094 114.834 58.508 115.064 58.784C115.294 59.0599 115.616 59.1979 116.03 59.1979H138.201C139.121 59.1979 140.041 58.462 140.271 57.542L145.883 35.095C145.975 34.681 145.929 34.2671 145.699 33.9911C145.469 33.7151 145.147 33.5771 144.733 33.5771H122.516Z" fill="white"/>
<path d="M95.377 35.4168H61.0166C60.5566 35.4168 60.2346 35.0489 60.2346 34.6349C60.2346 34.2209 60.6026 33.8529 61.0166 33.8529H95.377C95.837 33.8529 96.159 34.2209 96.159 34.6349C96.159 35.0489 95.791 35.4168 95.377 35.4168Z" fill="#73A5FF"/>
<path d="M92.709 51.2861H58.3486C57.8886 51.2861 57.5666 50.9181 57.5666 50.5041C57.5666 50.0902 57.9346 49.7222 58.3486 49.7222H92.709C93.169 49.7222 93.491 50.0902 93.491 50.5041C93.491 50.9181 93.169 51.2861 92.709 51.2861Z" fill="#73A5FF"/>
<path d="M107.152 45.2603H72.7918C72.3318 45.2603 72.0098 44.8924 72.0098 44.4784C72.0098 44.0644 72.3778 43.6964 72.7918 43.6964H107.152C107.612 43.6964 107.934 44.0644 107.934 44.4784C107.934 44.8924 107.612 45.2603 107.152 45.2603Z" fill="#73A5FF"/>
<path d="M70.446 40.7066H60.1424C59.6824 40.7066 59.3605 40.3386 59.3605 39.9247C59.3605 39.5107 59.7284 39.1427 60.1424 39.1427H70.446C70.9059 39.1427 71.2279 39.5107 71.2279 39.9247C71.2279 40.3386 70.8599 40.7066 70.446 40.7066Z" fill="#73A5FF"/>
<path d="M69.0202 45.2603H58.7166C58.2567 45.2603 57.9347 44.8924 57.9347 44.4784C57.9347 44.0644 58.3027 43.6964 58.7166 43.6964H69.0202C69.4802 43.6964 69.8021 44.0644 69.8021 44.4784C69.8021 44.8924 69.4802 45.2603 69.0202 45.2603Z" fill="#73A5FF"/>
<path d="M113.04 35.4168H100.805C100.345 35.4168 100.023 35.0489 100.023 34.6349C100.023 34.2209 100.391 33.8529 100.805 33.8529H113.04C113.5 33.8529 113.822 34.2209 113.822 34.6349C113.822 35.0489 113.5 35.4168 113.04 35.4168Z" fill="#73A5FF"/>
<path d="M106.83 58.1858H88.5231C88.3851 58.1858 88.2931 58.1398 88.2011 58.0478C88.1091 57.9558 88.1091 57.8178 88.1091 57.6798L88.9371 54.552C88.9831 54.368 89.1671 54.23 89.3511 54.23H107.612C107.75 54.23 107.842 54.276 107.934 54.368C108.026 54.46 108.026 54.598 108.026 54.736L107.198 57.8638C107.152 58.0478 107.014 58.1858 106.83 58.1858ZM88.7071 57.6338H106.738L107.474 54.736H89.4431L88.7071 57.6338Z" fill="#7094D8"/>
<path d="M84.1072 58.1858H65.8461C65.7081 58.1858 65.6161 58.1398 65.5241 58.0478C65.4321 57.9558 65.4321 57.8178 65.4321 57.6798L66.26 54.552C66.306 54.368 66.49 54.23 66.674 54.23H84.9352C85.0732 54.23 85.1652 54.276 85.2572 54.368C85.3492 54.46 85.3492 54.598 85.3492 54.736L84.5212 57.8638C84.4292 58.0478 84.2912 58.1858 84.1072 58.1858ZM65.9841 57.6338H84.0152L84.7512 54.736H66.72L65.9841 57.6338Z" fill="#7094D8"/>
<path d="M144.677 111.238H52.0999C51.1072 111.238 50.4167 110.332 50.6756 109.382L59.3076 76.1492C59.4802 75.5019 60.0845 75.0271 60.7319 75.0271H153.309C154.302 75.0271 154.993 75.9335 154.734 76.883L146.102 110.116C145.972 110.806 145.368 111.238 144.677 111.238Z" fill="#F25B24"/>
<path d="M97.029 82.9254H64.7887C64.3571 82.9254 64.055 82.5802 64.055 82.1917C64.055 81.8033 64.4003 81.458 64.7887 81.458H97.029C97.4606 81.458 97.7627 81.8033 97.7627 82.1917C97.7627 82.5802 97.4174 82.9254 97.029 82.9254Z" fill="white" fill-opacity="0.64"/>
<path d="M94.5257 97.7722H62.2854C61.8538 97.7722 61.5517 97.427 61.5517 97.0385C61.5517 96.6501 61.897 96.3048 62.2854 96.3048H94.5257C94.9573 96.3048 95.2594 96.6501 95.2594 97.0385C95.2594 97.427 94.9573 97.7722 94.5257 97.7722Z" fill="white" fill-opacity="0.64"/>
<path d="M108.078 92.1615H75.8378C75.4062 92.1615 75.1041 91.8162 75.1041 91.4278C75.1041 91.0394 75.4493 90.6941 75.8378 90.6941H108.078C108.51 90.6941 108.812 91.0394 108.812 91.4278C108.812 91.8162 108.51 92.1615 108.078 92.1615Z" fill="white" fill-opacity="0.64"/>
<path d="M73.6365 87.8888H63.9687C63.5371 87.8888 63.235 87.5435 63.235 87.1551C63.235 86.7667 63.5803 86.4214 63.9687 86.4214H73.6365C74.0681 86.4214 74.3702 86.7667 74.3702 87.1551C74.3702 87.5435 74.0249 87.8888 73.6365 87.8888Z" fill="white" fill-opacity="0.64"/>
<path d="M72.2987 92.1615H62.6309C62.1993 92.1615 61.8972 91.8162 61.8972 91.4278C61.8972 91.0394 62.2425 90.6941 62.6309 90.6941H72.2987C72.7303 90.6941 73.0324 91.0394 73.0324 91.4278C73.0324 91.8162 72.7303 92.1615 72.2987 92.1615Z" fill="white" fill-opacity="0.64"/>
<path d="M113.603 82.9254H102.122C101.69 82.9254 101.388 82.5802 101.388 82.1917C101.388 81.8033 101.734 81.458 102.122 81.458H113.603C114.034 81.458 114.336 81.8033 114.336 82.1917C114.336 82.5802 114.034 82.9254 113.603 82.9254Z" fill="white" fill-opacity="0.64"/>
<path d="M107.776 104.246H90.6414C90.5119 104.246 90.4256 104.203 90.3393 104.117C90.2529 104.03 90.2529 103.901 90.2529 103.771L91.0298 100.837C91.073 100.664 91.2456 100.534 91.4182 100.534H108.553C108.682 100.534 108.768 100.578 108.855 100.664C108.941 100.75 108.941 100.88 108.941 101.009L108.164 103.944C108.078 104.16 107.948 104.246 107.776 104.246ZM90.7709 103.771H107.689L108.38 101.052H91.4614L90.7709 103.771Z" fill="white" fill-opacity="0.64"/>
<path d="M86.4552 104.246H69.3208C69.1913 104.246 69.105 104.203 69.0187 104.117C68.9324 104.03 68.9324 103.901 68.9324 103.771L69.7092 100.837C69.7524 100.664 69.925 100.534 70.0977 100.534H87.2321C87.3615 100.534 87.4479 100.578 87.5342 100.664C87.6205 100.75 87.6205 100.88 87.6205 101.009L86.8436 103.944C86.7573 104.16 86.6278 104.246 86.4552 104.246ZM69.4503 103.771H86.3689L87.0594 101.052H70.1408L69.4503 103.771Z" fill="white" fill-opacity="0.64"/>
<path d="M137.901 99.7576C137.038 98.5923 133.456 97.7291 132.463 96.5638C131.945 95.9595 131.945 94.8374 132.075 93.931C132.42 93.7152 132.722 93.4994 132.895 93.2836C133.197 92.852 133.542 92.2478 133.844 91.6004C133.931 91.6867 134.06 91.773 134.276 91.773C134.751 91.773 136.52 89.3129 136.046 88.7519C135.787 88.4497 135.355 88.7087 135.053 89.0108C135.528 87.9318 135.873 87.1118 135.873 87.1118C135.916 86.9823 135.959 86.8528 136.002 86.6802C136.693 83.8317 134.967 81.5442 132.161 81.5442C129.313 81.5442 126.464 83.8317 125.73 86.6802C125.687 86.8097 125.687 86.9392 125.644 87.1118C125.644 87.1118 125.558 87.9318 125.515 89.0108C125.342 88.7087 125.083 88.4497 124.651 88.7519C123.918 89.3129 124.479 91.7299 124.953 91.773C125.126 91.773 125.299 91.6867 125.428 91.6004C125.428 92.2478 125.471 92.852 125.558 93.2836C125.644 93.5426 125.903 93.8015 126.205 94.1037C125.86 95.01 125.299 96.0458 124.565 96.6069C123.011 97.7722 118.997 98.6354 117.53 99.8007C116.235 100.837 115.027 103.944 114.811 104.548H138.29C138.333 103.858 138.678 100.793 137.901 99.7576Z" fill="white" fill-opacity="0.64"/>
<g opacity="0.46">
<path opacity="0.46" d="M141.822 154H53.6088C52.6629 154 52.0049 153.137 52.2517 152.232L60.4767 120.565C60.6412 119.949 61.217 119.496 61.8339 119.496H150.047C150.993 119.496 151.651 120.36 151.405 121.265L143.18 152.931C143.056 153.589 142.48 154 141.822 154Z" fill="#BFD9FF"/>
<g opacity="0.46">
<path opacity="0.46" d="M96.4201 127.022H65.6996C65.2883 127.022 65.0004 126.693 65.0004 126.323C65.0004 125.953 65.3294 125.624 65.6996 125.624H96.4201C96.8313 125.624 97.1192 125.953 97.1192 126.323C97.1192 126.693 96.7902 127.022 96.4201 127.022Z" fill="#A9C2FF"/>
<path opacity="0.46" d="M94.0348 141.169H63.3142C62.903 141.169 62.6151 140.84 62.6151 140.47C62.6151 140.1 62.9441 139.771 63.3142 139.771H94.0348C94.446 139.771 94.7339 140.1 94.7339 140.47C94.7339 140.84 94.446 141.169 94.0348 141.169Z" fill="#A9C2FF"/>
<path opacity="0.46" d="M106.948 135.823H76.2685C75.8573 135.823 75.5694 135.494 75.5694 135.124C75.5694 134.754 75.8984 134.425 76.2685 134.425H106.989C107.4 134.425 107.688 134.754 107.688 135.124C107.688 135.494 107.359 135.823 106.948 135.823Z" fill="#A9C2FF"/>
<path opacity="0.46" d="M74.1298 131.752H64.9178C64.5065 131.752 64.2187 131.423 64.2187 131.052C64.2187 130.682 64.5477 130.353 64.9178 130.353H74.1298C74.5411 130.353 74.829 130.682 74.829 131.052C74.829 131.423 74.5 131.752 74.1298 131.752Z" fill="#A9C2FF"/>
<path opacity="0.46" d="M72.8549 135.823H63.6429C63.2316 135.823 62.9438 135.494 62.9438 135.124C62.9438 134.754 63.2728 134.425 63.6429 134.425H72.8549C73.2662 134.425 73.5541 134.754 73.5541 135.124C73.5541 135.494 73.2662 135.823 72.8549 135.823Z" fill="#A9C2FF"/>
<path opacity="0.46" d="M112.212 127.022H101.272C100.861 127.022 100.573 126.693 100.573 126.323C100.573 125.953 100.902 125.624 101.272 125.624H112.212C112.623 125.624 112.911 125.953 112.911 126.323C112.911 126.693 112.623 127.022 112.212 127.022Z" fill="#A9C2FF"/>
<path opacity="0.46" d="M106.66 147.338H90.3333C90.21 147.338 90.1277 147.297 90.0455 147.215C89.9632 147.132 89.9632 147.009 89.9632 146.886L90.7035 144.089C90.7446 143.925 90.9091 143.801 91.0736 143.801H107.4C107.524 143.801 107.606 143.842 107.688 143.925C107.77 144.007 107.77 144.13 107.77 144.254L107.03 147.05C106.948 147.256 106.825 147.338 106.66 147.338ZM90.4567 146.886H106.578L107.236 144.295H91.1147L90.4567 146.886Z" fill="#84AEE5"/>
<path opacity="0.46" d="M86.3443 147.338H70.0175C69.8942 147.338 69.8119 147.297 69.7297 147.215C69.6474 147.132 69.6474 147.009 69.6474 146.886L70.3877 144.089C70.4288 143.925 70.5933 143.801 70.7578 143.801H87.0845C87.2079 143.801 87.2901 143.842 87.3724 143.925C87.4546 144.007 87.4546 144.13 87.4546 144.254L86.7144 147.05C86.6321 147.256 86.5088 147.338 86.3443 147.338ZM70.1409 146.886H86.262L86.92 144.295H70.7989L70.1409 146.886Z" fill="#84AEE5"/>
</g>
<path opacity="0.46" d="M135.366 143.061C134.543 141.951 131.13 141.128 130.184 140.018C129.69 139.442 129.69 138.373 129.814 137.509C130.143 137.303 130.431 137.098 130.595 136.892C130.883 136.481 131.212 135.905 131.5 135.288C131.582 135.37 131.706 135.453 131.911 135.453C132.364 135.453 134.05 133.109 133.597 132.574C133.351 132.286 132.939 132.533 132.651 132.821C133.104 131.793 133.433 131.011 133.433 131.011C133.474 130.888 133.515 130.764 133.556 130.6C134.214 127.886 132.569 125.706 129.896 125.706C127.182 125.706 124.467 127.886 123.768 130.6C123.727 130.723 123.727 130.847 123.686 131.011C123.686 131.011 123.604 131.793 123.563 132.821C123.398 132.533 123.151 132.286 122.74 132.574C122.041 133.109 122.576 135.412 123.028 135.453C123.193 135.453 123.357 135.37 123.48 135.288C123.48 135.905 123.522 136.481 123.604 136.892C123.686 137.139 123.933 137.386 124.221 137.673C123.892 138.537 123.357 139.524 122.658 140.059C121.177 141.169 117.353 141.992 115.955 143.102C114.721 144.089 113.569 147.05 113.364 147.626H135.736C135.777 146.968 136.106 144.048 135.366 143.061Z" fill="#8DBCF8"/>
</g>
<g opacity="0.46">
<path opacity="0.46" d="M141.822 154H53.6088C52.6629 154 52.0049 153.137 52.2517 152.232L60.4767 120.565C60.6412 119.949 61.217 119.496 61.8339 119.496H150.047C150.993 119.496 151.651 120.36 151.405 121.265L143.18 152.931C143.056 153.589 142.48 154 141.822 154Z" fill="#BFD9FF"/>
<g opacity="0.46">
<path opacity="0.46" d="M96.4201 127.022H65.6996C65.2883 127.022 65.0004 126.693 65.0004 126.323C65.0004 125.953 65.3294 125.624 65.6996 125.624H96.4201C96.8313 125.624 97.1192 125.953 97.1192 126.323C97.1192 126.693 96.7902 127.022 96.4201 127.022Z" fill="#A9C2FF"/>
<path opacity="0.46" d="M94.0348 141.169H63.3142C62.903 141.169 62.6151 140.84 62.6151 140.47C62.6151 140.1 62.9441 139.771 63.3142 139.771H94.0348C94.446 139.771 94.7339 140.1 94.7339 140.47C94.7339 140.84 94.446 141.169 94.0348 141.169Z" fill="#A9C2FF"/>
<path opacity="0.46" d="M106.948 135.823H76.2685C75.8573 135.823 75.5694 135.494 75.5694 135.124C75.5694 134.754 75.8984 134.425 76.2685 134.425H106.989C107.4 134.425 107.688 134.754 107.688 135.124C107.688 135.494 107.359 135.823 106.948 135.823Z" fill="#A9C2FF"/>
<path opacity="0.46" d="M74.1298 131.752H64.9178C64.5065 131.752 64.2187 131.423 64.2187 131.052C64.2187 130.682 64.5477 130.353 64.9178 130.353H74.1298C74.5411 130.353 74.829 130.682 74.829 131.052C74.829 131.423 74.5 131.752 74.1298 131.752Z" fill="#A9C2FF"/>
<path opacity="0.46" d="M72.8549 135.823H63.6429C63.2316 135.823 62.9438 135.494 62.9438 135.124C62.9438 134.754 63.2728 134.425 63.6429 134.425H72.8549C73.2662 134.425 73.5541 134.754 73.5541 135.124C73.5541 135.494 73.2662 135.823 72.8549 135.823Z" fill="#A9C2FF"/>
<path opacity="0.46" d="M112.212 127.022H101.272C100.861 127.022 100.573 126.693 100.573 126.323C100.573 125.953 100.902 125.624 101.272 125.624H112.212C112.623 125.624 112.911 125.953 112.911 126.323C112.911 126.693 112.623 127.022 112.212 127.022Z" fill="#A9C2FF"/>
<path opacity="0.46" d="M106.66 147.338H90.3333C90.21 147.338 90.1277 147.297 90.0455 147.215C89.9632 147.132 89.9632 147.009 89.9632 146.886L90.7035 144.089C90.7446 143.925 90.9091 143.801 91.0736 143.801H107.4C107.524 143.801 107.606 143.842 107.688 143.925C107.77 144.007 107.77 144.13 107.77 144.254L107.03 147.05C106.948 147.256 106.825 147.338 106.66 147.338ZM90.4567 146.886H106.578L107.236 144.295H91.1147L90.4567 146.886Z" fill="#84AEE5"/>
<path opacity="0.46" d="M86.3443 147.338H70.0175C69.8942 147.338 69.8119 147.297 69.7297 147.215C69.6474 147.132 69.6474 147.009 69.6474 146.886L70.3877 144.089C70.4288 143.925 70.5933 143.801 70.7578 143.801H87.0845C87.2079 143.801 87.2901 143.842 87.3724 143.925C87.4546 144.007 87.4546 144.13 87.4546 144.254L86.7144 147.05C86.6321 147.256 86.5088 147.338 86.3443 147.338ZM70.1409 146.886H86.262L86.92 144.295H70.7989L70.1409 146.886Z" fill="#84AEE5"/>
</g>
<path opacity="0.46" d="M135.366 143.061C134.543 141.951 131.13 141.128 130.184 140.018C129.69 139.442 129.69 138.373 129.814 137.509C130.143 137.303 130.431 137.098 130.595 136.892C130.883 136.481 131.212 135.905 131.5 135.288C131.582 135.37 131.706 135.453 131.911 135.453C132.364 135.453 134.05 133.109 133.597 132.574C133.351 132.286 132.939 132.533 132.651 132.821C133.104 131.793 133.433 131.011 133.433 131.011C133.474 130.888 133.515 130.764 133.556 130.6C134.214 127.886 132.569 125.706 129.896 125.706C127.182 125.706 124.467 127.886 123.768 130.6C123.727 130.723 123.727 130.847 123.686 131.011C123.686 131.011 123.604 131.793 123.563 132.821C123.398 132.533 123.151 132.286 122.74 132.574C122.041 133.109 122.576 135.412 123.028 135.453C123.193 135.453 123.357 135.37 123.48 135.288C123.48 135.905 123.522 136.481 123.604 136.892C123.686 137.139 123.933 137.386 124.221 137.673C123.892 138.537 123.357 139.524 122.658 140.059C121.177 141.169 117.353 141.992 115.955 143.102C114.721 144.089 113.569 147.05 113.364 147.626H135.736C135.777 146.968 136.106 144.048 135.366 143.061Z" fill="#8DBCF8"/>
</g>
<path d="M40.9153 14.6719H39.1214C38.6614 14.6719 38.3855 14.3039 38.5235 13.8439L38.9834 12.05C39.0754 11.59 39.5354 11.222 39.9954 11.222H41.7893C42.2493 11.222 42.5253 11.59 42.3873 12.05L41.9273 13.8439C41.8353 14.3039 41.3753 14.6719 40.9153 14.6719Z" fill="#BFD9FF"/>
<path d="M39.5817 19.9617H37.7878C37.3278 19.9617 37.0518 19.5937 37.1898 19.1337L37.6498 17.3398C37.7418 16.8798 38.2018 16.5118 38.6617 16.5118H40.4557C40.9156 16.5118 41.1916 16.8798 41.0536 17.3398L40.5937 19.1337C40.5017 19.5937 40.0417 19.9617 39.5817 19.9617Z" fill="#EDF4FF"/>
<path d="M45.3312 19.9617H43.5373C43.0773 19.9617 42.8013 19.5937 42.9393 19.1337L43.3993 17.3398C43.4913 16.8798 43.9513 16.5118 44.4113 16.5118H46.2052C46.6652 16.5118 46.9411 16.8798 46.8031 17.3398L46.3432 19.1337C46.2512 19.5937 45.7912 19.9617 45.3312 19.9617Z" fill="#BFD9FF"/>
<path d="M51.081 19.9617H49.287C48.8271 19.9617 48.5511 19.5937 48.6891 19.1337L49.1491 17.3398C49.241 16.8798 49.701 16.5118 50.161 16.5118H51.9549C52.4149 16.5118 52.6909 16.8798 52.5529 17.3398L52.0929 19.1337C52.0009 19.5937 51.5409 19.9617 51.081 19.9617Z" fill="#EDF4FF"/>
<path d="M38.2479 25.3893H36.454C35.994 25.3893 35.718 25.0213 35.856 24.5613L36.316 22.7674C36.408 22.3074 36.8679 21.9395 37.3279 21.9395H39.1218C39.5818 21.9395 39.8578 22.3074 39.7198 22.7674L39.2598 24.5613C39.1678 25.0213 38.7079 25.3893 38.2479 25.3893Z" fill="#EDF4FF"/>
<path d="M36.7757 31.1392H34.9818C34.5218 31.1392 34.2458 30.7712 34.3838 30.3112L34.8438 28.5173C34.9358 28.0573 35.3957 27.6893 35.8557 27.6893H37.6496C38.1096 27.6893 38.3856 28.0573 38.2476 28.5173L37.7876 30.3112C37.6956 30.7712 37.2357 31.1392 36.7757 31.1392Z" fill="#EDF4FF"/>
<path d="M43.9974 25.3893H42.2035C41.7435 25.3893 41.4675 25.0213 41.6055 24.5613L42.0655 22.7674C42.1575 22.3074 42.6175 21.9395 43.0774 21.9395H44.8714C45.3313 21.9395 45.6073 22.3074 45.4693 22.7674L45.0094 24.5613C44.9174 25.0213 44.4574 25.3893 43.9974 25.3893Z" fill="#EDF4FF"/>
<path d="M41.4675 35.4629H39.6736C39.2136 35.4629 38.9376 35.0949 39.0756 34.6349L39.5356 32.841C39.6276 32.381 40.0875 32.0131 40.5475 32.0131H42.3414C42.8014 32.0131 43.0774 32.381 42.9394 32.841L42.4794 34.6349C42.3874 35.0949 41.9275 35.4629 41.4675 35.4629Z" fill="#BFD9FF"/>
<path d="M69.8945 4.13843C69.8485 4.13843 69.8485 4.13843 69.8945 4.13843C69.8485 4.13843 69.8025 4.13843 69.8025 4.13843C69.6185 4.13843 69.4345 4.13843 69.2506 4.13843C63.9148 4.13843 58.487 8.41623 57.0611 13.752L57.0151 14.028C57.0151 14.074 57.0151 14.074 57.0151 14.12L56.9691 14.304C55.7732 19.6857 59.269 24.0095 64.8348 23.7795C69.8945 23.5956 75.0003 19.5477 76.5182 14.534C78.0361 9.01421 75.0463 4.50641 69.8945 4.13843ZM73.5744 14.304C72.5164 17.8458 68.8366 20.7437 65.2487 20.8357C61.3849 20.9737 58.993 17.9838 59.775 14.212L59.867 13.752C60.8789 10.0262 64.6968 7.0363 68.4686 7.0363C68.6526 7.0363 68.8366 7.0363 69.0206 7.08229C72.6544 7.35828 74.7243 10.4861 73.5744 14.304Z" fill="#EBEDFC"/>
<path d="M69.3423 5.79349C69.1583 6.43746 69.4803 7.03544 70.0782 7.21943C73.0221 8.00139 74.586 10.8993 73.5281 14.3031C72.4701 17.8449 68.7903 20.7428 65.2025 20.8348C61.6606 20.9268 59.3607 18.4429 59.5907 15.1771C59.6367 14.4871 59.1767 14.0271 58.4408 14.0271C57.5668 14.0271 56.6469 14.8551 56.6009 15.729C56.2789 20.4208 59.5907 23.9627 64.6505 23.7787C69.7103 23.5947 74.816 19.5469 76.334 14.5331C77.8059 9.70332 75.598 5.5635 71.4122 4.45955C70.6302 4.18357 69.5723 4.87354 69.3423 5.79349Z" fill="#A5C5FF"/>
<path d="M94.2728 3.17236C94.2728 3.17236 94.2268 3.17236 94.2728 3.17236C94.2268 3.17236 94.1808 3.17236 94.1348 3.17236C93.9508 3.17236 93.7668 3.17236 93.5829 3.17236C88.1551 3.17236 82.6813 7.54217 81.3474 12.9699C80.0135 18.3977 83.2793 22.7675 88.7071 22.7675C88.8911 22.7675 89.0751 22.7675 89.2591 22.7675C89.3051 22.7675 89.351 22.7675 89.351 22.7675C89.351 22.7675 89.351 22.7675 89.397 22.7675C94.5488 22.3995 99.6086 18.2137 100.943 13.0619C100.943 13.0159 100.943 13.0159 100.989 12.9699C102.23 7.72616 99.2866 3.49435 94.2728 3.17236ZM89.903 19.8236C89.765 19.8236 89.627 19.8236 89.535 19.8236C89.489 19.8236 89.443 19.8236 89.397 19.8236C85.5792 19.8236 83.2793 16.7418 84.1993 12.9239C85.1192 9.1061 89.0291 6.02423 92.8469 6.02423C92.8929 6.02423 92.9389 6.02423 92.9849 6.02423C93.0769 6.02423 93.2149 6.02423 93.3069 6.02423C93.3069 6.02423 93.3069 6.02423 93.3529 6.02423C96.8947 6.25422 98.9646 9.24409 98.0447 12.9239C98.0447 12.9699 98.0447 12.9699 97.9987 13.0159C97.0787 16.6498 93.5369 19.5936 89.903 19.8236Z" fill="white"/>
<path d="M97.6307 14.2118C96.4348 16.9717 93.6749 19.1796 90.777 19.6856C90.0411 19.8236 89.3971 20.4215 89.2131 21.1115C88.9831 22.0315 89.6271 22.7214 90.593 22.5374C94.7329 21.8015 98.5967 18.6736 100.345 14.7178C100.713 13.8438 100.253 13.0159 99.3326 13.0159C98.6427 13.0159 97.9067 13.5218 97.6307 14.2118Z" fill="#BFD9FF"/>
<path d="M68.2381 37.6706H49.9769C49.8849 37.6706 49.8389 37.5786 49.8389 37.4866L50.6669 34.3587C50.6669 34.3127 50.7589 34.2667 50.8049 34.2667H69.066C69.158 34.2667 69.204 34.3587 69.204 34.4507L68.3761 37.5786C68.3761 37.6246 68.3301 37.6706 68.2381 37.6706Z" fill="#EDF4FF"/>
<path d="M153.031 52.2568C156.839 48.8938 157.8 43.7594 155.177 40.7887C152.554 37.8181 147.34 38.1361 143.531 41.4991C139.723 44.862 138.762 49.9965 141.385 52.9671C144.008 55.9378 149.222 55.6198 153.031 52.2568Z" fill="#F25B24"/>
<path d="M160.28 55.5639C159.958 56.8058 158.716 57.7718 157.52 57.7718C156.278 57.7718 155.542 56.7598 155.864 55.5639C156.186 54.3219 157.428 53.356 158.624 53.356C159.82 53.356 160.556 54.3679 160.28 55.5639Z" fill="#F25B24"/>
<path d="M146.204 51.0101C145.928 51.0101 145.698 50.9182 145.56 50.7342L143.445 47.9283C143.169 47.5603 143.307 46.9163 143.813 46.5024C144.319 46.1344 144.917 46.1344 145.239 46.5024L146.802 48.5723L152.414 44.1105C152.92 43.7425 153.518 43.7425 153.84 44.1105C154.116 44.4784 153.978 45.1224 153.472 45.5364L146.94 50.6882C146.71 50.8722 146.434 51.0101 146.204 51.0101Z" fill="white"/>
<path d="M9.66501 175.418C9.66501 175.418 10.4559 173.791 13.1811 174.308C15.9063 174.825 16.2141 175.416 16.4976 176.832C16.7798 178.296 17.6623 179.875 18.3035 180.185C18.9432 180.543 21.2152 182.26 23.1079 182.655C25.0006 183.051 25.197 184.27 24.7173 184.79C24.284 185.311 17.0766 185.584 15.5059 185.295C15.5059 185.295 10.1256 185.04 8.83897 184.566C7.64521 184.094 9.55653 175.948 9.66501 175.418Z" fill="#2D2737"/>
<path d="M7.74449 136.439C7.74449 136.439 7.08944 131.858 11.7293 130.442C16.4156 129.026 17.2318 131.283 18.5001 135.542C19.7698 139.753 16.1229 175.365 16.1229 175.365C16.1229 175.365 10.7576 176.178 9.43745 175.266C9.43745 175.266 6.08219 151.921 6.54719 145.577C7.01362 139.184 7.74449 136.439 7.74449 136.439Z" fill="#2D1686"/>
<path d="M8.92183 173.843C8.92183 173.843 14.9704 173.487 16.8831 173.203L16.7062 176.061C16.7062 176.061 11.9007 176.794 8.98984 176.271L8.92183 173.843Z" fill="#4E33B5"/>
<path d="M9.76502 47.2766C9.76502 47.2766 5.958 47.5192 3.63665 56.5906C1.3153 65.662 -0.170362 76.7223 0.665324 79.5844C1.50101 82.4465 10.6007 90.2081 13.9899 90.2081C17.3791 90.2081 17.6112 87.5401 16.9612 85.3571C16.3112 83.1256 9.76502 77.1589 9.76502 77.1589C9.76502 77.1589 15.0577 59.4527 14.8256 54.7957C14.5934 50.1387 12.0864 47.2766 9.76502 47.2766Z" fill="#4E33B5"/>
<path d="M57.4918 44.5599L56.8418 44.6084L58.2811 41.6978C58.2811 41.6978 61.9024 41.4553 62.4595 43.0561L60.7881 46.8884L57.4918 44.5599Z" fill="#FFAE73"/>
<path d="M59.5343 36.2648C59.5343 36.2648 59.395 33.2572 60.4164 32.8691C61.4378 32.481 62.5521 33.2086 62.5521 33.2086C62.5521 33.2086 64.2234 33.0146 64.7341 33.7908C65.2448 34.5669 65.1984 35.6342 65.1984 35.6342C65.1984 35.6342 66.127 35.8282 66.3591 36.7984C66.5912 37.7201 66.1734 39.515 66.1734 39.515C66.1734 39.515 65.1056 40.8733 63.852 40.5337C62.6449 40.1941 59.5343 36.2648 59.5343 36.2648Z" fill="#FFAE73"/>
<path d="M57.6311 38.6417C57.6311 38.6417 57.2597 34.7124 57.6311 34.2273C58.049 33.6937 62.181 27.7269 62.181 27.7269C62.181 27.7269 63.0167 28.7456 62.5524 29.9099C62.0417 31.0741 60.0918 34.6154 60.0918 34.6154V37.623C60.0918 37.623 58.8382 38.5447 57.6311 38.6417Z" fill="#FFAE73"/>
<path d="M57.9557 41.7949C57.9557 41.7949 56.9807 35.4886 57.6307 34.6154C58.3271 33.7422 61.6234 34.2758 62.2269 34.5184C62.8769 34.7609 64.5947 37.1379 64.8269 38.0596C65.059 38.9813 63.434 42.3285 62.4127 43.0562C61.4841 43.7838 58.5128 43.0077 57.9557 41.7949Z" fill="#FFAE73"/>
<path d="M55.6351 45.9668L56.8886 43.5413C56.8886 43.5413 59.8599 43.0077 61.3456 45.4332C61.7634 46.3064 61.5777 46.3064 61.5777 46.3064L60.6028 48.2953L55.6351 45.9668Z" fill="#DEE0E8"/>
<path d="M24.6481 21.7805C24.6481 21.7805 27.2359 22.4995 28.7422 26.898C30.2098 31.2964 29.2443 40.6009 28.2401 41.7005C27.2359 42.8001 24.2619 42.3772 20.1293 40.8969C15.7262 39.2475 14.2586 34.2569 13.4861 31.0004C11.9798 24.6987 16.9622 18.2279 24.6481 21.7805Z" fill="#FFAE73"/>
<path d="M15.3011 45.9296L17.4254 37.6402C17.4254 37.6402 21.6353 36.2868 24.3002 39.3742L25.1886 40.7276V46.1411C25.1499 46.1411 20.7469 47.1138 15.3011 45.9296Z" fill="#FFAE73"/>
<path d="M6.50003 98.3577C6.50003 98.3577 4.59652 109.952 6.50003 123.243C8.10906 147.727 12.1114 140.242 15.5935 140.242C19.0755 140.242 20.1496 127.221 20.7531 122.564C21.4031 117.907 23.9102 101.996 19.1746 98.3577C14.439 94.7194 9.05351 94.3799 6.50003 98.3577Z" fill="#2D1686"/>
<path d="M21.6351 112.92C21.6351 112.92 17.2998 103.134 23.9297 98.3982C30.5597 93.6625 35.6279 94.2817 37.2964 101.879C38.9649 109.476 39.6003 135.714 37.4345 141.027C27.9473 150.973 27.6362 137.445 21.6351 112.92Z" fill="#2D1686"/>
<path d="M29.7464 22.1612C29.7464 22.1612 30.9824 23.9375 30.2485 26.0099C29.5147 28.0822 26.7338 28.8858 26.7338 28.8858C26.7338 28.8858 27.6222 30.2392 26.7338 32.1847L26.1159 33.2843C26.1159 33.2843 27.0042 35.4835 26.7338 36.0333C26.5021 36.5831 25.6138 36.4562 25.6138 36.4562C25.6138 36.4562 24.6096 33.3689 24.2234 33.6649C23.8371 33.9187 22.8329 35.3143 22.8329 36.5408C22.8329 37.7673 23.2192 38.7401 22.9488 39.5436C22.7171 40.3472 18.8162 40.3472 17.194 40.0934C15.5718 39.8397 13.0613 34.3416 12.4434 31.8886C12.4434 31.8886 11.5551 28.4629 12.8296 25.587C12.8296 25.587 12.5979 23.134 14.7221 20.6387C16.8464 18.1857 23.6054 18.9893 24.7255 19.962C24.7255 19.962 24.6096 18.6086 25.8455 18.8624C27.1201 19.1584 28.974 20.3849 29.7464 22.1612Z" fill="#232729"/>
<path d="M25.9997 34.6377C25.9997 34.6377 25.6135 32.8614 24.2617 33.665C22.8713 34.4685 24.4934 38.7401 25.6521 38.4441C26.7336 38.1903 26.2315 35.3144 25.9997 34.6377Z" fill="#F99352"/>
<path d="M12.8753 46.9855C12.8753 46.9855 13.5717 44.366 14.2217 44.1719C14.8717 43.9294 22.6714 43.0562 26.9427 45.7243C28.8462 47.2766 28.6141 48.3923 28.6141 48.3923C28.6141 48.3923 15.9859 45.8698 12.8753 46.9855Z" fill="white"/>
<path d="M11.2509 46.4033C11.2509 46.4033 24.3897 45.5301 33.6751 49.702C37.9 51.9335 47.6032 61.9266 47.6032 61.9266L55.2172 45.3361C55.2172 45.3361 59.4885 43.7353 61.2063 47.9556C61.2063 47.9556 56.3779 67.5538 52.3852 73.7146C49.8317 75.946 35.2882 66.4094 35.2882 66.4094C35.2882 66.4094 34.6713 73.4764 34.6713 83.3408C34.6713 93.2051 39.6035 105.877 39.6035 105.877C39.6035 105.877 28.6255 107.543 18.8424 107.772C9.85304 106.659 3.83496 105.877 3.83496 105.877C3.83496 105.877 8.13415 78.3016 7.71631 75.1969C7.29847 72.0923 4.47251 55.9113 4.89036 53.6798C5.35463 51.4969 7.25813 47.2765 11.2509 46.4033Z" fill="#4E33B5"/>
<path d="M26.7052 176.035C26.7052 176.035 27.4285 174.377 30.1726 174.781C32.9168 175.186 33.2487 175.764 33.5903 177.167C33.9325 178.618 34.8793 180.159 35.5327 180.443C36.1866 180.775 38.5273 182.396 40.4347 182.713C42.3421 183.03 42.5886 184.24 42.1306 184.779C41.7191 185.318 34.5292 185.888 32.9479 185.664C32.9479 185.664 27.5616 185.631 26.2566 185.21C24.998 184.788 26.6192 176.619 26.7052 176.035Z" fill="#3E3343"/>
<path d="M27.5476 137.215C27.5476 137.215 27.1675 132.562 31.9377 131.535C36.7073 130.46 37.3383 132.781 38.3643 137.087C39.3903 141.392 33.4462 176.635 33.4462 176.635C33.4462 176.635 28.0651 177.038 26.7532 176.035C26.7532 176.035 24.8959 152.479 25.7498 146.162C26.6042 139.894 27.5476 137.215 27.5476 137.215Z" fill="#2D1686"/>
<path d="M26.2944 176.622C26.2944 176.622 30.4405 177.786 33.9142 177.066L34.2094 174.54L26.1717 174.101L26.2944 176.622Z" fill="#4E33B5"/>
<path d="M59.9991 34.0334C59.9527 34.0334 59.8598 33.9849 59.8134 33.9364C59.7205 33.8393 59.7205 33.6938 59.8134 33.5968L61.1133 32.384H61.2062C61.2526 32.384 62.1812 32.384 62.7383 33.0632C62.8311 33.1602 62.8311 33.3057 62.6919 33.4027C62.599 33.4998 62.4597 33.4513 62.3669 33.3542C62.0419 32.9662 61.5312 32.8691 61.299 32.8691L60.1384 33.9849C60.0919 34.0334 60.0455 34.0334 59.9991 34.0334Z" fill="#F99352"/>
<path d="M65.1526 35.828C65.1061 35.828 65.1061 35.828 65.0597 35.828C64.9204 35.7795 64.874 35.634 64.9204 35.4884C64.9204 35.4884 65.0597 35.0518 64.874 34.2757C64.7347 33.6936 63.7597 33.3055 63.2955 33.16C62.5991 33.548 61.8098 33.9846 61.6705 34.1302C61.6241 34.1787 61.5777 34.2272 61.4848 34.2272C61.3455 34.2272 61.2527 34.1302 61.2527 33.9846C61.2527 33.7906 61.2527 33.7421 63.1562 32.6749L63.249 32.6263H63.3419C63.5276 32.6749 65.1061 33.1114 65.3847 34.0816C65.6168 35.0033 65.4311 35.537 65.4311 35.5855C65.3383 35.7795 65.2454 35.828 65.1526 35.828Z" fill="#F99352"/>
<path d="M64.1777 40.8732H64.1312C63.9919 40.8732 63.8991 40.7761 63.8991 40.6306C63.8991 40.4851 63.9919 40.3881 64.1312 40.3881H64.1777C65.1991 40.3881 65.8955 39.5634 66.0347 39.4178C66.0812 39.2238 66.3597 38.3021 66.3597 37.3804C66.3597 36.6043 65.8955 36.1192 65.7562 36.0221C64.7812 35.9736 63.7598 35.9251 63.6205 35.9251C63.4813 35.9736 63.3884 35.8766 63.342 35.7796C63.2955 35.6341 63.3884 35.4885 63.5277 35.44C63.5741 35.44 63.667 35.3915 65.849 35.537H65.8955L65.9419 35.5855C65.9883 35.6341 66.824 36.2162 66.824 37.4289C66.7776 38.5447 66.4526 39.6119 66.4526 39.6604L66.4062 39.7089C66.3597 39.6604 65.5705 40.8732 64.1777 40.8732Z" fill="#F99352"/>
<path d="M62.4598 43.2987C62.367 43.2987 62.3206 43.2502 62.2741 43.2017C62.1813 43.1047 62.2277 42.9106 62.367 42.8621C63.4812 42.1345 63.9919 40.6792 64.3169 39.709C64.4098 39.4664 64.4562 39.2239 64.5491 39.0783C64.8276 38.4477 64.6419 38.0596 64.6419 38.0596C64.5955 37.9626 64.5955 37.7686 64.7348 37.7201C64.8276 37.6715 64.9669 37.6715 65.0598 37.8171C65.1062 37.8656 65.3848 38.3992 65.0133 39.2724C64.9669 39.4179 64.8741 39.6119 64.7812 39.8545C64.4562 40.8732 63.8991 42.4255 62.6456 43.2502C62.5527 43.2987 62.5063 43.2987 62.4598 43.2987Z" fill="#F99352"/>
</svg>
