<svg width="167" height="182" viewBox="0 0 167 182" fill="none" xmlns="http://www.w3.org/2000/svg">
<path d="M135.384 45.1403C135.066 39.4947 125.749 39.252 125.749 39.252C125.749 39.252 117.691 47.3116 115.873 47.1584C114.055 47.0051 121.428 38.9199 121.428 38.9199C118.059 37.8598 108.424 40.2355 108.424 40.2355C108.424 40.2355 106.683 51.2584 104.954 50.6581C103.226 50.0578 106.988 40.9763 106.988 40.9763C103.454 41.2701 99.5394 44.5144 99.5394 44.5144C94.3279 50.0322 101.649 56.4697 101.649 56.4697C101.649 56.4697 100.963 60.276 97.7217 64.1206C97.7217 64.1206 97.0226 64.8104 96.2091 66.0621L97.1116 66.2537C97.2387 66.0238 97.3658 65.8066 97.5056 65.6023C97.5056 65.6023 97.5056 65.6023 97.5056 65.5895C97.5946 65.4618 97.7344 65.283 97.8869 65.0658C98.281 64.5805 98.5479 64.2228 98.7259 63.9546C99.9207 62.4218 101.573 60.4548 102.476 60.1483C102.476 60.1483 102.399 59.9822 102.374 59.6885C102.412 59.829 102.437 59.9822 102.476 60.1483C103.327 63.8141 110.966 66.0238 115.466 66.0493C119.978 66.0749 118.351 64.4527 116.445 61.9748C114.538 59.4969 109.556 58.986 108.272 57.9003C107.001 56.8146 109.263 56.4825 112.098 57.3127C114.932 58.143 115.758 61.3489 120.322 62.7795C124.885 64.21 130.274 56.176 130.274 56.176C126.855 56.4953 121.466 53.4937 121.478 52.3313C121.491 51.169 129.995 53.0977 131.393 53.0466C132.804 52.97 135.702 50.7858 135.384 45.1403Z" fill="#DAEBFD"/>
<path opacity="0.5" d="M79.1505 44.3069C79.1505 44.3069 84.7687 24.0748 97.1618 13.3967C98.8142 11.9789 101.318 13.435 100.95 15.5808C100.95 15.6192 100.937 15.6575 100.924 15.6958C100.225 19.3488 86.0779 33.0413 79.1505 44.3069Z" fill="#A2CDFC"/>
<path opacity="0.5" d="M76.9646 50.0163C76.9646 50.0163 91.3914 25.8757 111.03 17.2413C112.225 16.7176 113.661 17.1902 114.233 18.3781C114.602 19.1444 114.652 20.2684 113.852 21.8906C111.742 26.2078 89.4467 38.3675 76.9646 50.0163Z" fill="#A2CDFC"/>
<path opacity="0.5" d="M106.489 132.725C106.489 132.725 128.39 121.689 132.355 125.534C136.309 129.378 106.489 132.725 106.489 132.725Z" fill="#A2CDFC"/>
<path opacity="0.5" d="M102.93 134.053C102.93 134.053 132.254 131.46 132.711 137.604C133.169 143.735 102.93 134.053 102.93 134.053Z" fill="#A2CDFC"/>
<path d="M12.1182 8.93668C17.628 -1.92095 36.2054 5.70379 36.2054 5.70379C36.2054 5.70379 45.142 28.5897 48.8518 29.8733C52.5762 31.1463 45.0213 8.80155 45.0213 8.80155C52.5735 9.6312 69.5236 22.6752 69.5236 22.6752C69.5236 22.6752 63.4346 45.9313 67.3499 46.2388C71.2632 46.5589 71.6978 25.3714 71.6978 25.3714C78.405 29.0286 83.3482 38.8075 83.3482 38.8075C88.8564 54.2223 68.8613 60.5575 68.8613 60.5575C68.8613 60.5575 66.927 68.6564 69.9835 79.0556C69.9835 79.0556 70.7556 81.0134 71.297 84.189L69.3414 83.777C69.2889 83.2127 69.2198 82.6717 69.1237 82.1394L69.1257 82.1267C69.1277 82.1141 69.1277 82.1141 69.1171 82.0995C69.0413 81.7643 68.9477 81.297 68.8198 80.7209C68.471 79.4246 68.2482 78.4715 68.1237 77.7924C67.103 73.7396 65.5266 68.3966 64.0171 67.0336C64.0171 67.0336 64.3035 66.7685 64.6211 66.2238C64.4266 66.4776 64.2282 66.7566 64.0171 67.0336C59.1816 73.5369 42.2222 71.2359 33.3063 67.3853C24.3924 63.5222 28.9997 61.728 34.9146 58.498C40.8295 55.268 51.0914 58.581 54.5363 57.5472C57.9937 56.5153 53.8009 53.8885 47.4946 53.0744C41.1882 52.2603 36.7928 57.8505 26.5605 56.7143C16.3409 55.5801 12.6442 35.0467 12.6442 35.0467C19.1147 38.6536 32.3233 37.402 33.3043 35.1002C34.2852 32.7983 15.8567 29.2052 13.1436 27.885C10.4372 26.6046 6.62101 19.7963 12.1182 8.93668Z" fill="#DAEBFD"/>
<path d="M135.939 91.724C134.083 84.8139 122.478 86.9725 122.478 86.9725C122.478 86.9725 114.598 99.0555 112.31 99.3493C110.022 99.6431 117.038 87.6878 117.038 87.6878C112.602 87.2535 101.289 92.7202 101.289 92.7202C101.289 92.7202 102.001 106.821 99.7132 106.54C97.4252 106.247 99.7132 94.0231 99.7132 94.0231C95.4169 95.3131 91.413 100.358 91.413 100.358C86.3922 108.558 97.1329 114.6 97.1329 114.6C97.1329 114.6 97.2727 119.492 94.2729 125.099C94.2729 125.099 93.5993 126.134 92.9002 127.896H94.0696C94.1713 127.577 94.2729 127.271 94.3873 126.977V126.964C94.4636 126.785 94.578 126.53 94.7305 126.21C95.0864 125.508 95.3279 124.984 95.4805 124.614C96.5482 122.404 98.0989 119.53 99.1285 118.917C99.1285 118.917 99.0014 118.738 98.8743 118.381C98.9506 118.547 99.0395 118.738 99.1285 118.917C101.137 123.234 111.153 123.95 116.746 122.8C122.326 121.651 119.898 120.067 116.886 117.499C113.873 114.932 107.581 115.609 105.713 114.6C103.857 113.591 106.577 112.582 110.301 112.876C114.026 113.169 115.881 116.899 121.906 117.487C127.919 118.061 132.507 106.694 132.507 106.694C128.351 107.984 120.902 105.685 120.623 104.241C120.33 102.798 131.363 102.951 133.079 102.517C134.795 102.083 137.795 98.634 135.939 91.724Z" fill="#DAEBFD"/>
<path d="M14.5054 96.2452C18.6364 88.3899 32.0846 94.176 32.0846 94.176C32.0846 94.176 38.351 110.959 41.0457 111.943C43.7404 112.914 38.4781 96.539 38.4781 96.539C43.9692 97.2287 56.1844 106.949 56.1844 106.949C56.1844 106.949 51.4941 123.822 54.354 124.103C57.2013 124.384 57.7478 108.941 57.7478 108.941C62.6034 111.688 66.0862 118.879 66.0862 118.879C69.9376 130.183 55.2946 134.564 55.2946 134.564C55.2946 134.564 53.7947 140.452 55.9175 148.064C55.9175 148.064 56.464 149.508 56.8199 151.82L55.3963 151.5C55.3709 151.092 55.3201 150.696 55.2565 150.312C55.2565 150.312 55.2565 150.312 55.2565 150.3V150.287C55.2057 150.044 55.1421 149.699 55.0531 149.278C54.8116 148.333 54.6591 147.63 54.5701 147.132C53.871 144.169 52.7779 140.26 51.6975 139.238C51.6975 139.238 51.9008 139.047 52.1423 138.651C52.0025 138.842 51.85 139.034 51.6975 139.238C48.1003 143.913 35.7707 142.048 29.3136 139.124C22.8692 136.199 26.2376 134.947 30.572 132.66C34.9064 130.374 42.355 132.916 44.8844 132.201C47.4139 131.485 44.3887 129.531 39.8001 128.854C35.2114 128.19 31.9447 132.201 24.5089 131.255C17.073 130.31 14.6071 115.289 14.6071 115.289C19.2847 117.997 28.9195 117.244 29.6568 115.583C30.394 113.923 17.0095 111.074 15.0393 110.091C13.0818 109.107 10.3744 104.1 14.5054 96.2452Z" fill="#C5E0FB"/>
<path d="M7.72439 160.552C5.53811 155.801 13.0502 151.547 13.0502 151.547C13.0502 151.547 23.1173 154.613 24.5282 153.693C25.9518 152.773 16.4313 149.389 16.4313 149.389C18.7193 147.051 27.6169 144.79 27.6169 144.79C27.6169 144.79 33.7944 153.042 34.9511 151.79C36.1078 150.551 29.1041 144.765 29.1041 144.765C32.1166 143.462 36.7179 144.394 36.7179 144.394C43.353 146.63 40.1626 155.085 40.1626 155.085C40.1626 155.085 42.3616 157.895 46.6705 159.632C46.6705 159.632 47.5349 159.888 48.7424 160.552L48.0815 161.101C47.8781 160.974 47.6747 160.846 47.4713 160.744C47.4713 160.744 47.4713 160.744 47.4586 160.744C47.3315 160.68 47.1409 160.59 46.9121 160.475C46.3782 160.245 46.0096 160.067 45.7427 159.939C44.1157 159.211 41.904 158.317 41.0396 158.47C41.0396 158.47 41.0269 158.304 40.9252 158.049C40.9634 158.176 41.0015 158.317 41.0396 158.47C41.9294 161.842 36.6417 166.964 32.9809 168.957C29.3075 170.949 29.943 168.905 30.426 166.044C30.909 163.183 34.7604 160.59 35.3324 159.147C35.9044 157.704 33.9088 158.419 31.9513 160.335C29.9939 162.251 30.7057 165.227 27.5915 168.382C24.49 171.537 16.6093 167.322 16.6093 167.322C19.5455 166.095 22.647 161.293 22.1385 160.348C21.6301 159.402 15.5162 164.69 14.3468 165.252C13.2028 165.814 9.91066 165.303 7.72439 160.552Z" fill="#D3E8FA"/>
<path d="M73.0985 106.2C72.9724 106.373 72.4564 107.202 73.1214 108.135C73.1673 108.193 73.1902 108.239 73.2132 108.285C81.1707 113.09 105.032 132.516 105.032 146.216V174.583H33.0126V146.204C33.0126 132.424 57.1948 112.687 64.9804 108.135C65.2327 107.79 65.3129 107.444 65.3129 107.156C65.3129 106.568 64.9804 106.165 64.9804 106.165C57.1834 101.522 33.0126 81.9228 33.0126 68.1424V39.775H105.021V68.1539C105.021 81.9228 80.9185 101.614 73.0985 106.2Z" fill="#9FD4FF"/>
<path d="M109.159 181.9H28.3108V174.791C28.3108 174.676 28.4026 174.583 28.5172 174.583H108.976C109.079 174.583 109.171 174.676 109.171 174.779V181.9H109.159Z" fill="#E34208"/>
<path d="M53.6288 147.967C53.2619 154.316 54.4659 168.016 54.3512 174.595H33.0126V146.216C33.0126 132.436 57.1948 112.698 64.9804 108.147C65.2327 107.801 65.3129 107.456 65.3129 107.168C65.3129 106.58 64.9804 106.177 64.9804 106.177C57.1834 101.533 33.0126 81.9343 33.0126 68.1539V39.775H47.288L57.4815 42.5749V65.0084C57.4815 65.0084 56.4725 71.4722 58.995 77.8209C61.5176 84.1696 66.9411 104.529 66.8609 107.179C66.7806 109.829 54.2595 137.079 53.6288 147.967Z" fill="#93C8FD"/>
<path d="M95.6979 58.6369C91.3292 58.706 83.8303 59.4895 71.6876 62.5774C63.3746 64.686 49.0418 63.0959 41.4626 62.0013C38.8025 61.6211 36.4289 63.6951 36.4289 66.3913V69.6635C36.4289 78.6738 60.5539 98.1922 66.9291 103.193C67.8923 103.953 68.4656 105.117 68.4656 106.35V156.448C68.4656 158.153 67.6285 159.755 66.2297 160.734C61.2075 164.26 52.7568 174.584 52.7568 174.584H84.7361C84.7361 174.584 76.1594 164.617 71.3436 160.918C70.2428 160.077 69.6007 158.764 69.6007 157.381V106.327C69.6007 105.105 70.1511 103.942 71.1028 103.181C77.3404 98.1461 100.949 78.5586 100.949 69.5598V63.8449C100.949 60.9298 98.5759 58.5908 95.6979 58.6369Z" fill="#F8E6E0"/>
<path d="M108.953 42.5748H28.5064C28.4032 42.5748 28.3114 42.4826 28.3114 42.3789V35.2698H109.16V42.3789C109.16 42.4941 109.068 42.5748 108.953 42.5748Z" fill="#E34208"/>
<path d="M138.921 83.481C138.921 83.481 142.451 83.8792 145.184 83.7163C148.605 83.5172 152.805 83.4267 153.602 84.3318C154.38 85.2369 154.38 85.2369 152.859 86.0334C151.683 86.6489 147.121 88.6582 144.044 87.7169C140.966 86.7575 137.038 86.9566 137.038 86.9566L138.921 83.481Z" fill="#FFAE73"/>
<path d="M101.25 49.8831C101.25 49.8831 107.821 82.4491 115.641 84.9291C119.497 86.16 136.387 88.459 141.329 88.4952C141.329 88.4952 142.487 87.4453 141.944 83.4628C141.944 83.4628 124.077 78.0864 121.398 74.7375C117.397 69.7594 122.43 53.3769 117.506 48.7789C112.582 44.1809 104.653 42.5517 101.25 49.8831Z" fill="#2D1686"/>
<path d="M122.85 156.146C122.85 156.146 115.952 160.611 116.621 162.054C116.716 162.246 120.519 169.116 120.519 169.116L125.43 177.872C125.43 177.872 127.493 176.64 126.519 173.811C125.544 171.002 124.952 165.691 127.455 162.246C130.092 158.629 122.85 156.146 122.85 156.146Z" fill="#232536"/>
<path d="M161.398 61.5938L153.846 84.8344L154.742 85.1252L162.293 61.8846L161.398 61.5938Z" fill="#F25B24"/>
<path d="M129.145 83.0238L129.112 84.5621L154.74 85.1095L154.773 83.5711L129.145 83.0238Z" fill="#F25B24"/>
<path d="M140.431 174.269C140.431 174.269 143.816 172.902 145.192 172.328C146.586 171.738 146.767 170.523 147.364 171.333C147.979 172.126 150.948 174.555 152.541 174.825C154.116 175.112 163.957 174.803 163.957 178.085C163.957 178.615 158.994 179.088 152.174 180.324C145.79 181.48 144.279 181.613 141.173 181.613C139.779 181.292 140.431 174.269 140.431 174.269Z" fill="#232536"/>
<path d="M138.052 127.415C138.106 123.867 133.889 113.929 130.739 107.937C125.797 98.3429 122.683 90.8667 122.683 90.8667C122.683 90.8667 101.051 92.3692 101.16 95.3018C101.377 100.859 106.355 105.801 108.527 108.209L113.162 112.698C113.162 112.698 117.741 117.242 121.018 121.134C125.399 126.347 124.131 128.501 126.268 135.579C128.186 141.933 139.542 175.926 139.542 175.926L149.263 171.89C149.263 171.89 137.98 132.918 138.052 127.415Z" fill="#2D1686"/>
<path d="M114.99 40.9406C114.99 40.9406 119.877 51.2408 120.366 56.2008C120.855 61.1608 122.593 71.6782 122.774 74.466C122.955 77.2537 122.774 90.9753 122.774 90.9753L97.9375 101.529C97.9375 101.529 102.3 93.4915 101.558 84.0421C100.816 74.5927 99.4038 67.569 99.5667 62.1203C100.128 43.5111 108.111 37.2659 108.111 37.2659L114.99 40.9406Z" fill="white"/>
<path d="M127.969 23.7435C127.969 23.7435 128.965 28.3415 127.716 28.6492C126.684 28.9026 127.462 33.3558 127.535 34.0799C127.607 34.7859 125.616 34.7134 125.109 35.0212C124.602 35.3108 121.977 40.0355 120.421 39.7459C118.864 39.4562 112.709 35.0936 111.424 32.6317C110.12 30.1517 111.134 20.9738 113.451 17.6611C115.75 14.3122 126.195 15.688 127.969 23.7435Z" fill="#FFAE73"/>
<path d="M118.9 37.1029C118.9 37.1029 118.737 37.5917 118.484 38.3339C118.375 38.6416 118.266 39.0218 118.14 39.4019C118.049 39.7096 117.94 40.0174 117.85 40.3432C117.234 42.4069 116.565 44.905 116.547 46.0997C116.51 48.3625 109.143 37.2115 109.143 37.2115C109.143 37.2115 111.46 30.2965 112.799 22.241C114.121 14.2036 118.9 37.1029 118.9 37.1029Z" fill="#FFAE73"/>
<path d="M128.186 24.5219C128.186 24.5219 131.535 20.7748 128.386 16.5207C125.236 12.2486 116.366 15.9234 115.461 15.9234C114.574 15.9234 109.722 15.0002 109.957 23.9065C110.157 31.7447 110.464 31.4732 110.464 31.4732C110.464 31.4732 112.944 28.2329 113.976 27.8347C115.587 27.2192 118.484 28.2329 118.484 28.2329C118.484 28.2329 118.067 24.1056 120.421 24.1599C122.774 24.2142 126.177 23.11 128.186 24.5219Z" fill="#292B2D"/>
<path d="M116.655 25.3907C116.619 24.8296 116.619 22.4401 114.356 23.1823C112.093 23.9245 113.958 28.9569 114.266 29.1017C114.573 29.2465 117.035 30.1516 116.655 25.3907Z" fill="#FFAE73"/>
<path d="M123.899 93.9696L122.701 90.7399L99.9467 97.7273V100.841L123.899 93.9696Z" fill="#404367"/>
<path d="M118.357 38.7503C118.357 38.7503 118.212 39.2752 117.977 39.945C117.886 40.2166 117.814 40.5243 117.705 40.8682C115.207 38.7141 114.23 36.216 114.211 36.1436C116.13 37.1935 118.357 38.7503 118.357 38.7503Z" fill="#C69474"/>
<path d="M117.054 44.6879C117.054 44.6879 118.809 47.3851 118.9 48.5436C118.936 48.9781 117.416 48.7066 117.416 48.7066L117.054 44.6879Z" fill="#F25B24"/>
<path d="M123.767 94.0117C123.767 94.0117 154.018 117.043 156.679 123.704C158.761 128.918 127.288 163.508 127.288 163.508C127.288 163.508 122.726 158.168 122.092 155.362C122.092 155.362 135.246 137.136 142.523 125.913C145.474 121.369 107.115 117.35 105.377 116.463C98.1909 112.771 102.572 99.9361 102.572 99.9361L123.767 94.0117Z" fill="#2D1686"/>
<path d="M125.181 104.298C125.181 104.298 108.57 109.042 96.1699 107.377C96.5681 105.874 97.6905 92.4787 97.2741 65.8322C96.9664 45.5577 99.2097 41.0929 107.211 37.0018C107.41 37.201 118.103 42.5568 118.122 57.4369C118.122 58.3239 118.502 62.4914 118.502 62.4914C118.502 62.4914 118.321 68.2136 118.122 69.0825C117.307 72.884 118.61 70.1938 118.122 73.9048C117.941 75.2263 117.814 76.6744 117.959 77.9597C118.122 79.426 118.303 80.8199 118.502 82.1594C120.783 97.1843 125.181 104.298 125.181 104.298Z" fill="#4E33B5"/>
<path d="M105.432 178.246H108.799C108.835 178.246 108.853 178.21 108.853 178.192V122.292C108.853 122.256 108.817 122.238 108.799 122.238H105.432C105.396 122.238 105.377 122.274 105.377 122.292V178.174C105.377 178.228 105.396 178.246 105.432 178.246Z" fill="#7C9BC7"/>
<path d="M91.4751 181.921C93.1224 177.631 99.4944 174.445 107.134 174.445C114.755 174.445 121.145 177.649 122.792 181.921H91.4751Z" fill="#7C9BC7"/>
<path d="M95.2403 167.403H119.552C119.57 167.403 119.588 167.385 119.588 167.367L118.556 165.176C118.556 165.158 118.103 165.14 118.556 165.14H95.2403C95.2222 165.14 95.2041 165.158 95.2041 165.176V167.367C95.2041 167.385 95.2222 167.403 95.2403 167.403Z" fill="#7C9BC7"/>
<path d="M87.3641 128.248H126.649C128.771 128.248 130.513 126.582 130.513 124.555V118.998C130.513 116.97 128.771 115.305 126.649 115.305H87.3641C85.2426 115.323 83.5 116.97 83.5 119.016V124.573C83.5 126.582 85.2426 128.248 87.3641 128.248Z" fill="#F25B24"/>
<path d="M118.859 48.8575C118.859 48.8575 123.283 58.7846 124.272 70.2017C125.285 82.0445 124.988 86.3985 124.988 86.3985L123.505 89.6688L122.171 85.9147C122.171 85.9147 122.764 70.6661 119.18 56.1529C118.538 53.5211 117.426 48.5286 117.426 48.5286L118.859 48.8575Z" fill="#F25B24"/>
<path d="M118.52 83.6439C116.583 83.3543 115.026 83.0646 114.139 82.8112C108.672 81.2544 107.097 64.9262 104.346 55.2415C101.974 46.8782 106.265 41.3209 112.854 46.9688C112.908 47.005 112.962 47.0593 113.017 47.0955C115.696 49.4488 116.655 55.8389 117.126 61.6497C116.872 62.5005 116.565 63.3513 116.366 64.2202C115.551 68.0217 118.628 71.6964 118.14 75.4074C117.959 76.7289 117.832 78.177 117.977 79.4623C118.14 80.9105 118.321 82.3043 118.52 83.6439Z" fill="#2C1C82"/>
<path d="M140.876 78.2131C140.876 78.2131 141.709 78.6295 142.795 78.4846C143.863 78.3398 147.519 77.9597 148.063 78.3398C148.606 78.72 150.235 80.4397 150.633 80.8017C151.031 81.1638 151.52 82.5033 151.52 82.5033C151.068 82.7387 150.126 81.5801 149.583 81.4353C149.04 81.2905 144.406 82.2137 143.229 81.8879C142.035 81.562 140.279 80.7655 140.279 80.7655L140.876 78.2131Z" fill="#FFAE73"/>
<path d="M147.99 80.6206C147.972 80.693 148.913 82.7386 150.181 82.5756L149.348 81.0189L147.99 80.6206Z" fill="#FFAE73"/>
<path d="M142.777 78.4846C142.777 78.4846 144.442 77.6881 145.039 77.2537C145.039 77.2537 145.257 77.4528 145.202 77.67C145.112 78.0321 144.551 78.5932 144.551 78.5932L142.777 78.4846Z" fill="#FFAE73"/>
<path d="M113.868 43.4388C107.26 37.7909 101.468 43.5836 103.857 51.9287C106.609 61.6134 109.523 78.3761 114.99 79.9329C118.882 81.0372 136.007 82.1776 140.949 82.0509C140.949 82.0509 141.763 81.1639 141.093 77.2176C141.093 77.2176 121.108 74.3393 118.9 68.2751C118.122 66.1209 119.099 48.0186 114.03 43.5836C113.958 43.5293 113.922 43.4931 113.868 43.4388Z" fill="#4E33B5"/>
<path d="M109.548 36.1255C109.548 36.1255 114.31 42.8316 117.579 44.7791L117.182 49.409L108.093 37.283L109.548 36.1255Z" fill="white"/>
</svg>
